<svg width="78" height="101" viewBox="0 0 78 101" fill="none" xmlns="http://www.w3.org/2000/svg">
<g clip-path="url(#clip0)">
<path d="M30.7769 43.5658C31.1361 43.5258 31.4555 43.4458 31.7748 43.3657C31.4555 43.4458 31.1361 43.5258 30.7769 43.5658Z" fill="#FDC743"/>
<path d="M45.1872 38.9239L44.0295 41.685L43.83 42.2052L42.2732 45.8867L40.7962 42.3653L40.5966 41.8851L39.2394 38.6438C39.5188 37.7234 40.2373 37.0031 41.1554 36.683C41.4748 36.563 41.8341 36.5229 42.1933 36.5229C42.7123 36.5229 43.1913 36.643 43.5904 36.8431C44.3888 37.2432 44.9876 38.0035 45.1872 38.9239Z" fill="#FFB14E"/>
<path d="M21.4759 17.6758C20.8771 18.0359 20.2783 18.3961 19.7195 18.7962C20.2783 18.3561 20.8771 17.9959 21.4759 17.6758Z" stroke="#1946BB" stroke-width="0.5327" stroke-miterlimit="10"/>
<path d="M69.9764 22.7977C72.8505 19.7965 74.6069 15.7148 74.6069 11.193C74.6069 7.11141 73.13 3.3499 70.6949 0.46875C69.6571 7.67163 64.0685 13.474 56.7635 14.5944C53.0511 13.1938 49.0992 12.3135 44.9478 12.0334C44.4687 11.9934 43.9897 11.9934 43.5107 11.9533C43.1115 11.9533 42.6724 11.9533 42.2333 11.9533C41.8741 11.9533 41.5547 11.9533 41.1955 11.9533C40.5967 11.9533 39.9979 11.9934 39.3991 12.0334C35.2077 12.3135 31.176 13.2339 27.4237 14.7144C20.3981 13.634 14.8096 8.11181 13.612 1.06899C11.4565 3.87011 10.1791 7.39152 10.1791 11.2331C10.1791 15.6748 11.8956 19.7164 14.7297 22.7176C14.9693 22.9577 15.2088 23.1978 15.4483 23.4379C14.0511 25.7989 13.2528 28.52 13.2528 31.4812C13.2528 40.1246 20.2384 47.1674 28.9007 47.1674C33.4513 47.1674 37.5629 45.2066 40.3971 42.1254C40.4769 42.0454 40.5568 41.9654 40.5967 41.8853L40.1975 40.9249L39.8782 40.2046L39.7983 39.9645L39.2395 38.684C39.2395 38.644 39.2794 38.604 39.2794 38.564C39.2794 38.524 39.3193 38.484 39.3193 38.4439C39.3592 38.3639 39.3991 38.2839 39.4391 38.2038C39.5189 38.0438 39.5987 37.8837 39.7185 37.7637C39.7983 37.6836 39.8782 37.5636 39.958 37.4836C40.0378 37.4035 40.0777 37.3635 40.1576 37.2835C40.1975 37.2435 40.2374 37.2034 40.3173 37.1634C40.3173 37.1634 40.3173 37.1634 40.3572 37.1234C40.3572 37.1234 40.3971 37.0834 40.437 37.0834C40.4769 37.0434 40.5168 37.0434 40.5168 37.0034C40.5568 37.0034 40.5967 36.9633 40.5967 36.9233C40.6765 36.8833 40.7564 36.8433 40.8362 36.8033C40.8761 36.7633 40.916 36.7633 40.9959 36.7233C41.0358 36.7233 41.0358 36.7233 41.0757 36.6832C41.1156 36.6832 41.1156 36.6832 41.1555 36.6432C41.4749 36.5232 41.8341 36.4431 42.1934 36.4431C42.3132 36.4431 42.4329 36.4431 42.5527 36.4832C42.5527 36.4832 42.5527 36.4832 42.5926 36.4832C42.6724 36.4832 42.7922 36.5232 42.872 36.5232C43.1115 36.5632 43.351 36.6832 43.5905 36.7633C43.6305 36.8033 43.6704 36.8033 43.7103 36.8433C43.7103 36.8433 43.7502 36.8433 43.7502 36.8833C43.7901 36.8833 43.7901 36.9233 43.8301 36.9233C43.87 36.9233 43.9099 36.9633 43.9498 37.0034C43.9897 37.0434 44.0296 37.0434 44.0696 37.0834C44.1095 37.1234 44.1494 37.1634 44.1893 37.1634C44.2292 37.1634 44.2292 37.2034 44.2691 37.2034C44.3091 37.2034 44.3091 37.2435 44.3091 37.2835C44.349 37.3235 44.3889 37.3635 44.4288 37.4035C44.4687 37.4435 44.4687 37.4836 44.5087 37.4836C44.5087 37.4836 44.5087 37.5236 44.5486 37.5236C44.5885 37.5236 44.5885 37.5636 44.5885 37.6036C44.5885 37.6436 44.6284 37.6436 44.6284 37.6836L44.6683 37.7237C44.7083 37.8037 44.7482 37.8437 44.828 37.9237C44.828 37.9237 44.828 37.9637 44.8679 37.9637C44.9078 38.0038 44.9078 38.0038 44.9078 38.0438C44.9078 38.0838 44.9478 38.1238 44.9877 38.1638C45.0276 38.2038 45.0276 38.2439 45.0276 38.2839C45.0675 38.4039 45.1074 38.484 45.1474 38.604C45.1873 38.7241 45.2272 38.8441 45.2272 38.9241L44.0696 41.6852C44.1095 41.7653 44.1893 41.8053 44.2292 41.8853C47.1033 45.1266 51.2548 47.1274 55.8853 47.1274C64.5076 47.1274 71.5332 40.1246 71.5332 31.4411C71.5332 28.52 70.7349 25.7589 69.3377 23.3979C69.5373 23.2379 69.7369 22.9978 69.9764 22.7977ZM40.3572 32.3615C40.3572 32.6016 40.3572 32.8017 40.3173 33.0418C40.3173 33.0818 40.3173 33.1618 40.3173 33.2419C40.1576 34.9225 39.6786 36.4832 38.9201 37.8437L37.6427 39.6844L34.8086 42.0854C34.609 42.2054 34.3695 42.3255 34.1299 42.4455C33.8904 42.5656 33.6909 42.6456 33.4513 42.7657C33.2917 42.8457 33.0921 42.9257 32.9324 42.9657C32.8526 43.0058 32.7727 43.0458 32.653 43.0458C32.4933 43.1258 32.2937 43.1658 32.134 43.2058C32.0542 43.2459 31.9744 43.2459 31.8945 43.2859H31.8546C31.5353 43.3659 31.176 43.4459 30.8567 43.486C30.6172 43.526 30.3776 43.566 30.1781 43.566C30.0184 43.566 29.8587 43.606 29.6591 43.606C29.5394 43.606 29.4196 43.606 29.2999 43.606C29.1801 43.606 29.0603 43.606 28.9406 43.606C22.5936 43.606 17.4442 38.4439 17.4442 32.0814C17.4442 29.8405 18.0829 27.7197 19.2006 25.9189C21.2364 22.6776 24.829 20.5568 28.9007 20.5568C32.174 20.5568 35.1678 21.9573 37.2436 24.1582C38.8802 25.8789 39.958 28.1198 40.2773 30.6008C40.3173 31.081 40.3572 31.5612 40.3572 32.0414C40.3572 32.2415 40.3572 32.3215 40.3572 32.3615ZM55.8853 43.7261C49.8178 43.7261 44.8679 39.0042 44.4288 33.0418C44.4288 32.9618 44.4288 32.8417 44.4288 32.7217C44.4288 32.6416 44.4288 32.5616 44.4288 32.4816C44.4288 32.4415 44.4288 32.3615 44.4288 32.3215V32.2014C44.4288 31.7213 44.4687 31.2411 44.5087 30.7609C44.828 28.2799 45.9058 26.039 47.5424 24.3183C49.6182 22.0774 52.612 20.7168 55.8853 20.7168C59.957 20.7168 63.5496 22.8377 65.5854 26.079C66.7031 27.8797 67.3418 29.9605 67.3418 32.2415C67.3817 38.564 62.2323 43.7261 55.8853 43.7261Z" fill="#32B0C9"/>
<path d="M67.3817 32.2014C67.3817 38.5639 62.2323 43.726 55.8853 43.726C49.8178 43.726 44.8679 39.0041 44.4288 33.0417C44.4288 32.9617 44.4288 32.8416 44.4288 32.7216C44.4288 32.6416 44.4288 32.5615 44.4288 32.4815C44.4288 32.4415 44.4288 32.3615 44.4288 32.3214V32.2014C44.4288 31.7212 44.4687 31.241 44.5087 30.7608C44.828 28.2798 45.9058 26.0389 47.5424 24.3182C49.6182 22.0773 52.612 20.7168 55.8853 20.7168C59.957 20.7168 63.5496 22.8376 65.5854 26.0789C66.7431 27.8396 67.3817 29.9605 67.3817 32.2014Z" fill="white"/>
<path d="M40.2774 31.2409C40.2774 31.3209 40.2774 31.401 40.2774 31.441C40.2774 31.9612 40.3173 32.4814 40.3572 33.0016C40.3572 33.0416 40.3572 33.1217 40.3572 33.2017C40.1975 34.8824 39.7185 36.443 38.9601 37.8035L37.6428 39.6843L34.8086 42.0853C34.609 42.2053 34.3695 42.3253 34.13 42.4454C33.8905 42.5654 33.6909 42.6455 33.4514 42.7655C33.2917 42.8456 33.0921 42.9256 32.9324 42.9656C32.8526 43.0056 32.7728 43.0456 32.653 43.0456C32.4933 43.1257 32.2938 43.1657 32.1341 43.2057C32.0542 43.2457 31.9744 43.2457 31.8946 43.2857H31.8547C31.5353 43.3658 31.176 43.4458 30.8567 43.4858C30.6172 43.5258 30.3777 43.5658 30.1781 43.5658C30.0184 43.5658 29.8587 43.6059 29.6592 43.6059C29.5394 43.6059 29.4196 43.6059 29.2999 43.6059C29.1801 43.6059 29.0604 43.6059 28.9406 43.6059C22.5936 43.6059 17.4442 38.4438 17.4442 32.0812C17.4442 29.8404 18.0829 27.7195 19.2006 25.9188C21.2364 22.6775 24.8291 20.5566 28.9007 20.5566C32.174 20.5566 35.1679 21.9572 37.2436 24.1581C38.8802 25.8788 39.958 28.1197 40.2774 30.6007C40.3173 31.0809 40.3572 31.561 40.3572 32.0412C40.3572 32.0813 40.3572 32.1213 40.3572 32.2013C40.3572 31.9612 40.3173 31.6011 40.2774 31.2409Z" fill="white"/>
<path d="M34.7687 42.0855L37.6029 39.6846C36.8045 40.645 35.8465 41.4453 34.7687 42.0855Z" fill="#FDC743"/>
<path d="M38.9201 37.8438C38.5608 38.484 38.1217 39.1243 37.6427 39.6845L38.9201 37.8438Z" fill="#FDC743"/>
<path d="M40.3173 33.042C40.2773 32.5217 40.2374 32.0015 40.2374 31.4813C40.2374 31.4013 40.2374 31.3213 40.2374 31.2812C40.3173 31.6414 40.3173 32.0015 40.3173 32.4017C40.3173 32.4417 40.3173 32.4417 40.3173 32.4817C40.3173 32.7618 40.3173 33.0019 40.2773 33.282C40.3173 33.162 40.3173 33.082 40.3173 33.042Z" fill="#32B0C9"/>
<path d="M57.1228 32.3215C57.1228 32.9618 57.0429 33.562 56.8434 34.1222C56.0849 36.7633 53.6499 38.6841 50.7359 38.6841C47.5424 38.6841 44.9078 36.3231 44.4688 33.2819C44.4288 33.0818 44.4288 32.8818 44.4288 32.7217C44.4288 32.6417 44.4288 32.5616 44.4288 32.4816C44.4288 32.4416 44.4288 32.3615 44.4288 32.3215C44.4288 28.8001 47.263 25.959 50.7758 25.959C53.1709 25.959 55.2466 27.2795 56.3244 29.2403C56.8434 30.1607 57.1228 31.2011 57.1228 32.3215Z" fill="#FFB14E"/>
<path d="M55.8054 32.3215C55.8054 32.8817 55.7256 33.4019 55.526 33.8821C54.8873 35.7628 53.091 37.1234 51.0153 37.1234C48.3807 37.1234 46.2251 34.9625 46.2251 32.3215C46.2251 29.6804 48.3807 27.5195 51.0153 27.5195C52.7317 27.5195 54.2486 28.4399 55.0869 29.8004C55.526 30.5207 55.8054 31.4011 55.8054 32.3215Z" fill="#06122D"/>
<path d="M33.8904 38.6841C37.3958 38.6841 40.2374 35.8355 40.2374 32.3215C40.2374 28.8076 37.3958 25.959 33.8904 25.959C30.3851 25.959 27.5435 28.8076 27.5435 32.3215C27.5435 35.8355 30.3851 38.6841 33.8904 38.6841Z" fill="#FFB14E"/>
<path d="M33.8904 37.1234C36.5359 37.1234 38.6806 34.9735 38.6806 32.3215C38.6806 29.6694 36.5359 27.5195 33.8904 27.5195C31.2449 27.5195 29.1002 29.6694 29.1002 32.3215C29.1002 34.9735 31.2449 37.1234 33.8904 37.1234Z" fill="#06122D"/>
<path d="M30.697 31.6812C30.697 32.6816 30.0983 33.522 29.26 33.9221C28.9406 34.0822 28.6213 34.1622 28.262 34.1622C27.8629 34.1622 27.4637 34.0822 27.1443 33.8821C26.346 33.482 25.827 32.6416 25.827 31.7212C25.827 30.5208 26.6653 29.5604 27.783 29.3203C27.9427 29.2803 28.1024 29.2803 28.262 29.2803C28.8209 29.2803 29.3398 29.4804 29.739 29.8005C30.3378 30.2006 30.697 30.8809 30.697 31.6812Z" fill="white"/>
<path d="M59.0787 31.6812C59.0787 32.6816 58.48 33.5619 57.6018 33.9221C57.3623 34.0021 57.1228 34.0821 56.8433 34.1222C56.7635 34.1222 56.6837 34.1222 56.6437 34.1222C56.2845 34.1222 55.9252 34.0421 55.6458 33.8821C55.6059 33.8821 55.6059 33.8421 55.566 33.8421C54.7676 33.4419 54.2087 32.6016 54.2087 31.6412C54.2087 30.8809 54.568 30.2006 55.0869 29.7604C55.1269 29.7604 55.1269 29.7204 55.1269 29.7204C55.4462 29.4803 55.8853 29.2802 56.3244 29.2402C56.4442 29.2402 56.524 29.2002 56.6437 29.2002C56.8034 29.2002 56.9631 29.2002 57.0828 29.2402C58.2005 29.4803 59.0787 30.4807 59.0787 31.6812Z" fill="white"/>
<path d="M15.9274 78.6201H20.0389V90.2248H20.1986L24.39 85.4228H29.26L23.5916 91.9054L29.5394 100.149H24.7094L20.1986 93.9462H20.0389V100.149H15.9274V78.6201Z" fill="#32B0C9"/>
<path d="M32.1341 83.1021C31.655 82.6219 31.4155 82.0617 31.4155 81.4215C31.4155 80.7812 31.655 80.221 32.1341 79.7408C32.6131 79.2606 33.1719 79.0205 33.8106 79.0205C34.4892 79.0205 35.0481 79.2606 35.4872 79.7408C35.9662 80.221 36.1658 80.7812 36.1658 81.4215C36.1658 82.0617 35.9263 82.6219 35.4872 83.1021C35.0082 83.5823 34.4493 83.8224 33.8106 83.8224C33.132 83.7824 32.5732 83.5423 32.1341 83.1021ZM31.7349 85.4231H35.8464V100.189H31.7349V85.4231Z" fill="#FDC743"/>
<path d="M42.3132 99.5885C41.2354 99.0283 40.3572 98.1479 39.6387 96.9875C38.9601 95.827 38.6008 94.4264 38.6008 92.7858C38.6008 91.1451 38.9601 89.7446 39.6387 88.5841C40.3173 87.4236 41.2354 86.5833 42.3531 85.9831C43.4708 85.4228 44.6684 85.1027 45.9058 85.1027C47.5425 85.1027 48.9795 85.6229 50.217 86.6233V78.6201H54.3286V100.149H50.217V98.6281C49.0594 99.8286 47.5425 100.469 45.6663 100.469C44.5087 100.469 43.391 100.189 42.3132 99.5885ZM49.1791 96.1071C49.8577 95.4669 50.217 94.6265 50.217 93.5061V92.1055C50.217 91.0251 49.8577 90.1847 49.1791 89.5445C48.5005 88.9042 47.6223 88.5841 46.5845 88.5841C45.4268 88.5841 44.5087 88.9442 43.8301 89.7046C43.1116 90.4649 42.7523 91.5053 42.7523 92.8258C42.7523 94.1463 43.1116 95.1867 43.8301 95.9471C44.5486 96.7074 45.4667 97.0675 46.6244 97.0675C47.6622 97.0275 48.5005 96.7474 49.1791 96.1071Z" fill="#FD671B"/>
<path d="M59.1985 99.3482C58.0808 98.5879 57.3623 97.5075 57.0031 96.147L57.1228 95.7468L60.2763 94.7864C60.6356 96.4271 61.6735 97.2674 63.4698 97.2674C64.0686 97.2674 64.5875 97.1474 64.9867 96.8672C65.3859 96.6271 65.5854 96.267 65.5854 95.7868C65.5854 95.3066 65.3459 94.9465 64.9068 94.6664C64.4677 94.3862 63.5895 94.1061 62.3122 93.786C60.7554 93.4259 59.5977 92.8656 58.7994 92.1454C58.001 91.4251 57.6018 90.4647 57.6018 89.3042C57.6018 88.5039 57.8413 87.8236 58.2804 87.1834C58.7195 86.5431 59.3582 86.0229 60.1566 85.6628C60.9549 85.3026 61.8731 85.1025 62.9109 85.1025C64.4677 85.1025 65.7451 85.4227 66.7431 86.1029C67.741 86.7832 68.3797 87.7436 68.6591 88.9841L68.4995 89.3042L65.3859 90.0645C65.2661 89.3842 64.9468 88.864 64.5077 88.5039C64.0686 88.1438 63.5097 87.9437 62.871 87.9437C62.392 87.9437 61.9529 88.0637 61.6336 88.2638C61.3142 88.4639 61.1146 88.744 61.1146 89.1041C61.1146 89.5443 61.394 89.9045 61.9529 90.1846C62.5118 90.4647 63.5097 90.7848 64.9468 91.185C66.4636 91.5851 67.5814 92.1454 68.2999 92.8256C69.0184 93.5059 69.3777 94.4263 69.3777 95.5867C69.3777 96.5071 69.1382 97.3074 68.6591 98.0677C68.1801 98.828 67.5015 99.3883 66.5834 99.8284C65.7052 100.269 64.6673 100.469 63.4698 100.469C61.7134 100.469 60.3163 100.109 59.1985 99.3482Z" fill="white"/>
<path d="M2.1955 69.5362C1.07779 68.7759 0.359263 67.6955 0 66.3349L0.119754 65.9348L3.27329 64.9744C3.63255 66.6151 4.67042 67.4554 6.46674 67.4554C7.06551 67.4554 7.58444 67.3353 7.98362 67.0552C8.38281 66.8151 8.5824 66.455 8.5824 65.9748C8.5824 65.4946 8.34289 65.1345 7.90379 64.8543C7.46469 64.5742 6.58649 64.2941 5.30911 63.974C3.7523 63.6139 2.59468 63.0536 1.79632 62.3333C0.997953 61.6131 0.598772 60.6527 0.598772 59.4922C0.598772 58.6919 0.838281 58.0116 1.27738 57.3714C1.71648 56.7311 2.35517 56.2109 3.15353 55.8507C3.95189 55.4906 4.87001 55.2905 5.90788 55.2905C7.46469 55.2905 8.74207 55.6107 9.74002 56.2909C10.738 56.9712 11.3767 57.9316 11.6561 59.1721L11.4964 59.4922L8.38281 60.2525C8.26305 59.5722 7.94371 59.052 7.50461 58.6919C7.06551 58.3317 6.50665 58.1317 5.86796 58.1317C5.38895 58.1317 4.94985 58.2517 4.6305 58.4518C4.31116 58.6519 4.11157 58.932 4.11157 59.2921C4.11157 59.7323 4.39099 60.0924 4.94985 60.3726C5.5087 60.6527 6.50665 60.9728 7.94371 61.373C9.4606 61.7731 10.5783 62.3333 11.2968 63.0136C12.0154 63.6939 12.3746 64.6143 12.3746 65.7747C12.3746 66.6951 12.1351 67.4954 11.6561 68.2557C11.1771 69.016 10.4985 69.5762 9.58035 70.0164C8.70215 70.4566 7.66428 70.6567 6.46674 70.6567C4.71034 70.6567 3.3132 70.2965 2.1955 69.5362Z" fill="white"/>
<path d="M15.1689 55.6112H19.2805V57.3719C20.4381 56.0113 21.8752 55.3311 23.6316 55.3311C25.388 55.3311 26.5855 56.0113 27.3041 57.4119C28.6214 56.0513 30.1782 55.3311 32.0144 55.3311C33.5313 55.3311 34.6889 55.7712 35.5272 56.6116C36.3655 57.4519 36.7646 58.6124 36.7646 60.093V70.3771H32.6531V60.9733C32.6531 59.5728 32.0144 58.8525 30.7769 58.8525C29.6193 58.8525 28.7012 59.4527 28.0226 60.6932V70.3371H23.8711V60.9733C23.8711 59.5327 23.2723 58.8124 22.0349 58.8124C21.476 58.8124 20.9172 59.0125 20.4381 59.3727C19.9591 59.7328 19.5599 60.213 19.2406 60.8132V70.297H15.1689V55.6112Z" fill="white"/>
<path d="M57.0829 55.6107H61.1945V57.3714C61.7134 56.7311 62.3521 56.2509 63.0307 55.8507C63.7093 55.4906 64.4677 55.2905 65.306 55.2905C65.9048 55.2905 66.3838 55.3706 66.7032 55.5306L66.1842 58.7719L65.9846 58.972C65.5854 58.892 65.2661 58.8119 64.9867 58.8119C64.1883 58.8119 63.4698 59.052 62.7912 59.4922C62.1525 59.9324 61.5936 60.6127 61.1945 61.453V70.2965H57.0829V55.6107Z" fill="white"/>
<path d="M71.9724 69.5364C71.174 68.7761 70.7749 67.6557 70.7749 66.1751V59.0522H68.1403V55.6109H70.7749V51.4092H71.2938H74.8465V55.6109H77.9601V59.0522H74.8465V65.855C74.8465 66.3352 74.9663 66.6953 75.2457 66.9354C75.5251 67.1755 75.9243 67.3356 76.4432 67.3356C76.7626 67.3356 77.1617 67.2555 77.6008 67.1355L77.8004 67.2555V70.4168C76.9622 70.6169 76.084 70.6969 75.2058 70.6969C73.8885 70.6569 72.7708 70.2967 71.9724 69.5364Z" fill="white"/>
<path d="M42.4729 69.7763C41.3951 69.2161 40.5169 68.3357 39.7984 67.1753C39.1198 66.0148 38.7605 64.6143 38.7605 62.9736C38.7605 61.3329 39.1198 59.9324 39.7984 58.7719C40.477 57.6115 41.3951 56.7711 42.5128 56.1709C43.6305 55.6107 44.828 55.2905 46.0655 55.2905C47.7022 55.2905 49.1392 55.8107 50.3767 56.8111V55.6107H54.4882V70.3766H50.3767V68.8559C49.219 70.0564 47.7022 70.6967 45.826 70.6967C44.6684 70.6567 43.5507 70.3766 42.4729 69.7763ZM49.3388 66.2949C50.0174 65.6547 50.3767 64.8143 50.3767 63.6939V62.2933C50.3767 61.2129 50.0174 60.3726 49.3388 59.7323C48.6602 59.092 47.782 58.7719 46.7441 58.7719C45.5865 58.7719 44.6684 59.1321 43.9898 59.8924C43.2712 60.6527 42.912 61.6931 42.912 63.0136C42.912 64.3341 43.2712 65.3746 43.9898 66.1349C44.7083 66.8952 45.6264 67.2553 46.784 67.2553C47.8219 67.2553 48.6602 66.9352 49.3388 66.2949Z" fill="white"/>
</g>
<defs>
<clipPath id="clip0">
<rect width="78" height="100" fill="white" transform="translate(0 0.46875)"/>
</clipPath>
</defs>
</svg>
