<svg width="45" height="57" viewBox="0 0 45 57" fill="none" xmlns="http://www.w3.org/2000/svg">
<g clip-path="url(#clip0)">
<path d="M26.0696 21.9196L25.4017 23.4934L25.2866 23.7899L24.3884 25.8884L23.5363 23.8812L23.4212 23.6074L22.6382 21.7599C22.7994 21.2353 23.2139 20.8247 23.7436 20.6423C23.9278 20.5738 24.1351 20.551 24.3424 20.551C24.6418 20.551 24.9181 20.6195 25.1484 20.7335C25.609 20.9616 25.9545 21.395 26.0696 21.9196Z" fill="#FFB14E"/>
<path d="M12.39 9.80792C12.0446 10.0132 11.6991 10.2185 11.3767 10.4466C11.6991 10.1957 12.0446 9.9904 12.39 9.80792Z" stroke="#1946BB" stroke-width="0.5327" stroke-miterlimit="10"/>
<path d="M40.371 12.7275C42.0292 11.0168 43.0425 8.69028 43.0425 6.11285C43.0425 3.78631 42.1904 1.64226 40.7856 0C40.1868 4.10564 36.9626 7.41297 32.7482 8.05162C30.6064 7.2533 28.3265 6.7515 25.9314 6.59184C25.6551 6.56903 25.3787 6.56903 25.1023 6.54622C24.872 6.54622 24.6187 6.54622 24.3654 6.54622C24.1581 6.54622 23.9739 6.54622 23.7666 6.54622C23.4212 6.54622 23.0757 6.56903 22.7303 6.59184C20.3122 6.7515 17.9862 7.27611 15.8214 8.12005C11.7682 7.5042 8.544 4.35654 7.85311 0.342137C6.60951 1.93878 5.87256 3.94598 5.87256 6.13565C5.87256 8.66747 6.86284 10.9712 8.49794 12.6819C8.63612 12.8187 8.7743 12.9556 8.91248 13.0924C8.10644 14.4382 7.64584 15.9892 7.64584 17.6771C7.64584 22.6038 11.676 26.6182 16.6735 26.6182C19.2989 26.6182 21.6709 25.5006 23.306 23.7443C23.3521 23.6987 23.3981 23.6531 23.4212 23.6074L23.1909 23.06L23.0066 22.6495L22.9606 22.5126L22.6382 21.7827C22.6382 21.7599 22.6612 21.7371 22.6612 21.7143C22.6612 21.6915 22.6842 21.6687 22.6842 21.6459C22.7073 21.6002 22.7303 21.5546 22.7533 21.509C22.7994 21.4178 22.8454 21.3265 22.9145 21.2581C22.9606 21.2125 23.0066 21.1441 23.0527 21.0984C23.0988 21.0528 23.1218 21.03 23.1679 20.9844C23.1909 20.9616 23.2139 20.9388 23.26 20.916C23.26 20.916 23.26 20.916 23.283 20.8932C23.283 20.8932 23.306 20.8704 23.3291 20.8704C23.3521 20.8475 23.3751 20.8475 23.3751 20.8247C23.3981 20.8247 23.4212 20.8019 23.4212 20.7791C23.4672 20.7563 23.5133 20.7335 23.5594 20.7107C23.5824 20.6879 23.6054 20.6879 23.6515 20.6651C23.6745 20.6651 23.6745 20.6651 23.6975 20.6423C23.7206 20.6423 23.7206 20.6423 23.7436 20.6195C23.9278 20.551 24.1351 20.5054 24.3424 20.5054C24.4115 20.5054 24.4805 20.5054 24.5496 20.5282C24.5496 20.5282 24.5496 20.5282 24.5727 20.5282C24.6187 20.5282 24.6878 20.551 24.7339 20.551C24.872 20.5738 25.0102 20.6423 25.1484 20.6879C25.1714 20.7107 25.1945 20.7107 25.2175 20.7335C25.2175 20.7335 25.2405 20.7335 25.2405 20.7563C25.2636 20.7563 25.2636 20.7791 25.2866 20.7791C25.3096 20.7791 25.3326 20.8019 25.3557 20.8247C25.3787 20.8475 25.4017 20.8475 25.4248 20.8704C25.4478 20.8932 25.4708 20.916 25.4938 20.916C25.5169 20.916 25.5169 20.9388 25.5399 20.9388C25.5629 20.9388 25.5629 20.9616 25.5629 20.9844C25.586 21.0072 25.609 21.03 25.632 21.0528C25.6551 21.0756 25.6551 21.0984 25.6781 21.0984C25.6781 21.0984 25.6781 21.1213 25.7011 21.1213C25.7241 21.1213 25.7241 21.1441 25.7241 21.1669C25.7241 21.1897 25.7472 21.1897 25.7472 21.2125L25.7702 21.2353C25.7932 21.2809 25.8163 21.3037 25.8623 21.3493C25.8623 21.3493 25.8623 21.3722 25.8854 21.3722C25.9084 21.395 25.9084 21.395 25.9084 21.4178C25.9084 21.4406 25.9314 21.4634 25.9544 21.4862C25.9775 21.509 25.9775 21.5318 25.9775 21.5546C26.0005 21.6231 26.0235 21.6687 26.0466 21.7371C26.0696 21.8055 26.0926 21.874 26.0926 21.9196L25.4248 23.4934C25.4478 23.539 25.4939 23.5618 25.5169 23.6074C27.175 25.455 29.5701 26.5954 32.2415 26.5954C37.216 26.5954 41.2692 22.6038 41.2692 17.6543C41.2692 15.9892 40.8086 14.4154 40.0026 13.0696C40.1177 12.9784 40.2328 12.8415 40.371 12.7275ZM23.283 18.1789C23.283 18.3157 23.283 18.4298 23.26 18.5666C23.26 18.5894 23.26 18.6351 23.26 18.6807C23.1679 19.6387 22.8915 20.5282 22.4539 21.3037L21.717 22.3529L20.0819 23.7215C19.9667 23.7899 19.8285 23.8583 19.6904 23.9268C19.5522 23.9952 19.437 24.0408 19.2989 24.1092C19.2067 24.1549 19.0916 24.2005 18.9995 24.2233C18.9534 24.2461 18.9074 24.2689 18.8383 24.2689C18.7462 24.3145 18.631 24.3373 18.5389 24.3601C18.4928 24.383 18.4468 24.383 18.4007 24.4058H18.3777C18.1934 24.4514 17.9862 24.497 17.8019 24.5198C17.6638 24.5426 17.5256 24.5654 17.4104 24.5654C17.3183 24.5654 17.2262 24.5882 17.111 24.5882C17.042 24.5882 16.9729 24.5882 16.9038 24.5882C16.8347 24.5882 16.7656 24.5882 16.6965 24.5882C13.0348 24.5882 10.064 21.6459 10.064 18.0192C10.064 16.7419 10.4324 15.533 11.0773 14.5066C12.2518 12.6591 14.3245 11.4502 16.6735 11.4502C18.5619 11.4502 20.2891 12.2485 21.4867 13.503C22.4309 14.4838 23.0527 15.7611 23.2369 17.1753C23.26 17.449 23.283 17.7227 23.283 17.9964C23.283 18.1104 23.283 18.1561 23.283 18.1789ZM32.2415 24.6567C28.741 24.6567 25.8854 21.9652 25.632 18.5666C25.632 18.521 25.632 18.4526 25.632 18.3842C25.632 18.3385 25.632 18.2929 25.632 18.2473C25.632 18.2245 25.632 18.1789 25.632 18.1561V18.0876C25.632 17.8139 25.6551 17.5402 25.6781 17.2665C25.8623 15.8523 26.4841 14.575 27.4283 13.5942C28.6259 12.3169 30.3531 11.5414 32.2415 11.5414C34.5906 11.5414 36.6632 12.7503 37.8378 14.5978C38.4826 15.6243 38.8511 16.8103 38.8511 18.1104C38.8741 21.7143 35.9033 24.6567 32.2415 24.6567Z" fill="#32B0C9"/>
<path d="M38.8741 18.0876C38.8741 21.7143 35.9033 24.6567 32.2416 24.6567C28.7411 24.6567 25.8854 21.9652 25.6321 18.5666C25.6321 18.521 25.6321 18.4526 25.6321 18.3842C25.6321 18.3385 25.6321 18.2929 25.6321 18.2473C25.6321 18.2245 25.6321 18.1789 25.6321 18.1561V18.0876C25.6321 17.8139 25.6551 17.5402 25.6781 17.2665C25.8624 15.8524 26.4842 14.575 27.4284 13.5942C28.6259 12.3169 30.3532 11.5414 32.2416 11.5414C34.5906 11.5414 36.6633 12.7503 37.8378 14.5979C38.5057 15.6015 38.8741 16.8103 38.8741 18.0876Z" fill="white"/>
<path d="M23.2369 17.5402C23.2369 17.5858 23.2369 17.6315 23.2369 17.6543C23.2369 17.9508 23.26 18.2473 23.283 18.5438C23.283 18.5666 23.283 18.6123 23.283 18.6579C23.1909 19.6159 22.9145 20.5054 22.477 21.2809L21.717 22.353L20.0819 23.7215C19.9667 23.7899 19.8285 23.8584 19.6904 23.9268C19.5522 23.9952 19.437 24.0408 19.2989 24.1093C19.2067 24.1549 19.0916 24.2005 18.9995 24.2233C18.9534 24.2461 18.9074 24.2689 18.8383 24.2689C18.7462 24.3145 18.631 24.3373 18.5389 24.3602C18.4928 24.383 18.4468 24.383 18.4007 24.4058H18.3777C18.1934 24.4514 17.9862 24.497 17.8019 24.5198C17.6638 24.5426 17.5256 24.5654 17.4104 24.5654C17.3183 24.5654 17.2262 24.5883 17.111 24.5883C17.042 24.5883 16.9729 24.5883 16.9038 24.5883C16.8347 24.5883 16.7656 24.5883 16.6965 24.5883C13.0348 24.5883 10.064 21.6459 10.064 18.0192C10.064 16.7419 10.4324 15.533 11.0773 14.5066C12.2518 12.6591 14.3245 11.4502 16.6735 11.4502C18.5619 11.4502 20.2891 12.2485 21.4867 13.503C22.4309 14.4838 23.0527 15.7611 23.2369 17.1753C23.26 17.449 23.283 17.7227 23.283 17.9964C23.283 18.0192 23.283 18.042 23.283 18.0877C23.283 17.9508 23.26 17.7455 23.2369 17.5402Z" fill="white"/>
<path d="M17.7559 24.5654C17.9631 24.5426 18.1474 24.497 18.3316 24.4514C18.1474 24.497 17.9631 24.5426 17.7559 24.5654Z" fill="#FDC743"/>
<path d="M20.0588 23.7215L21.6939 22.3529C21.2334 22.9004 20.6806 23.3565 20.0588 23.7215Z" fill="#FDC743"/>
<path d="M22.454 21.3037C22.2467 21.6687 21.9934 22.0336 21.717 22.3529L22.454 21.3037Z" fill="#FDC743"/>
<path d="M23.26 18.5666C23.237 18.2701 23.214 17.9736 23.214 17.6771C23.214 17.6315 23.214 17.5858 23.214 17.563C23.26 17.7683 23.26 17.9736 23.26 18.2017C23.26 18.2245 23.26 18.2245 23.26 18.2473C23.26 18.407 23.26 18.5438 23.237 18.7035C23.26 18.6351 23.26 18.5894 23.26 18.5666Z" fill="#32B0C9"/>
<path d="M32.9555 18.1561C32.9555 18.521 32.9095 18.8632 32.7943 19.1825C32.3567 20.6879 30.9519 21.7827 29.2708 21.7827C27.4284 21.7827 25.9084 20.437 25.6551 18.7035C25.6321 18.5894 25.6321 18.4754 25.6321 18.3842C25.6321 18.3385 25.6321 18.2929 25.6321 18.2473C25.6321 18.2245 25.6321 18.1789 25.6321 18.1561C25.6321 16.1489 27.2672 14.5294 29.2938 14.5294C30.6756 14.5294 31.8731 15.2821 32.4949 16.3998C32.7943 16.9244 32.9555 17.5174 32.9555 18.1561Z" fill="#FFB14E"/>
<path d="M32.1955 18.1561C32.1955 18.4754 32.1494 18.7719 32.0343 19.0456C31.6658 20.1177 30.6294 20.8932 29.4319 20.8932C27.9119 20.8932 26.6683 19.6615 26.6683 18.1561C26.6683 16.6507 27.9119 15.419 29.4319 15.419C30.4222 15.419 31.2973 15.9436 31.7809 16.7191C32.0342 17.1297 32.1955 17.6315 32.1955 18.1561Z" fill="#06122D"/>
<path d="M19.5522 21.7827C21.5745 21.7827 23.2139 20.159 23.2139 18.1561C23.2139 16.1531 21.5745 14.5294 19.5522 14.5294C17.5299 14.5294 15.8905 16.1531 15.8905 18.1561C15.8905 20.159 17.5299 21.7827 19.5522 21.7827Z" fill="#FFB14E"/>
<path d="M19.5523 20.8932C21.0785 20.8932 22.3158 19.6677 22.3158 18.1561C22.3158 16.6444 21.0785 15.419 19.5523 15.419C18.026 15.419 16.7887 16.6444 16.7887 18.1561C16.7887 19.6677 18.026 20.8932 19.5523 20.8932Z" fill="#06122D"/>
<path d="M17.7098 17.7911C17.7098 18.3614 17.3643 18.8403 16.8807 19.0684C16.6965 19.1597 16.5122 19.2053 16.305 19.2053C16.0747 19.2053 15.8444 19.1597 15.6601 19.0456C15.1995 18.8175 14.9001 18.3385 14.9001 17.8139C14.9001 17.1297 15.3838 16.5822 16.0286 16.4454C16.1207 16.4226 16.2128 16.4226 16.305 16.4226C16.6274 16.4226 16.9268 16.5366 17.1571 16.7191C17.5025 16.9472 17.7098 17.3349 17.7098 17.7911Z" fill="white"/>
<path d="M34.0839 17.7911C34.0839 18.3613 33.7385 18.8631 33.2318 19.0684C33.0936 19.114 32.9555 19.1597 32.7942 19.1825C32.7482 19.1825 32.7021 19.1825 32.6791 19.1825C32.4718 19.1825 32.2646 19.1369 32.1034 19.0456C32.0803 19.0456 32.0803 19.0228 32.0573 19.0228C31.5967 18.7947 31.2743 18.3157 31.2743 17.7683C31.2743 17.3349 31.4816 16.9472 31.7809 16.6963C31.804 16.6963 31.804 16.6735 31.804 16.6735C31.9882 16.5366 32.2415 16.4226 32.4949 16.3998C32.564 16.3998 32.61 16.377 32.6791 16.377C32.7712 16.377 32.8633 16.377 32.9324 16.3998C33.5773 16.5366 34.0839 17.1068 34.0839 17.7911Z" fill="white"/>
<path d="M1.26663 39.3686C0.621801 38.9352 0.207267 38.3193 0 37.5438L0.0690891 37.3157L1.88843 36.7683C2.0957 37.7035 2.69447 38.1825 3.73081 38.1825C4.07625 38.1825 4.37564 38.114 4.60594 37.9544C4.83623 37.8175 4.95138 37.6122 4.95138 37.3385C4.95138 37.0648 4.8132 36.8595 4.55988 36.6999C4.30655 36.5402 3.7999 36.3806 3.06295 36.1981C2.16479 35.9928 1.49693 35.6735 1.03634 35.2629C0.575742 34.8523 0.345445 34.3049 0.345445 33.6435C0.345445 33.1873 0.483623 32.7995 0.73695 32.4346C0.990276 32.0696 1.35875 31.7731 1.81934 31.5678C2.27994 31.3625 2.80962 31.2485 3.40839 31.2485C4.30655 31.2485 5.0435 31.431 5.61924 31.8187C6.19498 32.2065 6.56346 32.7539 6.72467 33.461L6.63255 33.6435L4.83623 34.0768C4.76714 33.6891 4.58291 33.3926 4.32958 33.1873C4.07625 32.982 3.75384 32.868 3.38536 32.868C3.10901 32.868 2.85568 32.9364 2.67144 33.0504C2.48721 33.1645 2.37206 33.3241 2.37206 33.5294C2.37206 33.7803 2.53327 33.9856 2.85568 34.1453C3.1781 34.3049 3.75384 34.4874 4.58291 34.7155C5.45803 34.9436 6.10287 35.2629 6.5174 35.6507C6.93193 36.0384 7.1392 36.563 7.1392 37.2245C7.1392 37.7491 7.00102 38.2053 6.72467 38.6387C6.44831 39.072 6.05681 39.3914 5.52712 39.6423C5.02047 39.8932 4.4217 40.0072 3.73081 40.0072C2.7175 40.0072 1.91146 39.8019 1.26663 39.3686Z" fill="#1946BB"/>
<path d="M8.75122 31.431H11.1233V32.4346C11.7911 31.6591 12.6202 31.2713 13.6335 31.2713C14.6468 31.2713 15.3377 31.6591 15.7522 32.4574C16.5122 31.6819 17.4104 31.2713 18.4697 31.2713C19.3449 31.2713 20.0127 31.5222 20.4964 32.0012C20.98 32.4802 21.2103 33.1417 21.2103 33.9856V39.8475H18.8382V34.4874C18.8382 33.6891 18.4697 33.2785 17.7558 33.2785C17.088 33.2785 16.5583 33.6207 16.1668 34.3277V39.8247H13.7717V34.4874C13.7717 33.6663 13.4262 33.2557 12.7123 33.2557C12.3899 33.2557 12.0675 33.3698 11.7911 33.575C11.5148 33.7803 11.2845 34.054 11.1002 34.3962V39.8019H8.75122V31.431Z" fill="#1946BB"/>
<path d="M32.9324 31.431H35.3044V32.4346C35.6038 32.0696 35.9723 31.7959 36.3638 31.5678C36.7553 31.3625 37.1929 31.2485 37.6765 31.2485C38.0219 31.2485 38.2983 31.2941 38.4825 31.3854L38.1831 33.2329L38.068 33.3469C37.8377 33.3013 37.6535 33.2557 37.4923 33.2557C37.0317 33.2557 36.6171 33.3926 36.2256 33.6435C35.8571 33.8944 35.5347 34.2821 35.3044 34.7611V39.8019H32.9324V31.431Z" fill="#1946BB"/>
<path d="M41.5225 39.3685C41.0619 38.9352 40.8316 38.2965 40.8316 37.4526V33.3926H39.3116V31.431H40.8316V29.036H41.131H43.1806V31.431H44.977V33.3926H43.1806V37.2701C43.1806 37.5438 43.2497 37.7491 43.4109 37.886C43.5721 38.0228 43.8024 38.114 44.1018 38.114C44.2861 38.114 44.5164 38.0684 44.7697 38L44.8848 38.0684V39.8703C44.4012 39.9844 43.8946 40.03 43.3879 40.03C42.6279 40.0072 41.9831 39.8019 41.5225 39.3685Z" fill="#1946BB"/>
<path d="M9.18884 44.5462H11.5609V51.1609H11.653L14.0711 48.4238H16.8808L13.6105 52.1188L17.042 56.8175H14.2554L11.653 53.2821H11.5609V56.8175H9.18884V44.5462Z" fill="#32B0C9"/>
<path d="M18.5389 47.1008C18.2626 46.8271 18.1244 46.5078 18.1244 46.1429C18.1244 45.7779 18.2626 45.4586 18.5389 45.1849C18.8153 44.9112 19.1377 44.7743 19.5062 44.7743C19.8977 44.7743 20.2201 44.9112 20.4734 45.1849C20.7498 45.4586 20.8649 45.7779 20.8649 46.1429C20.8649 46.5078 20.7267 46.8271 20.4734 47.1008C20.1971 47.3745 19.8746 47.5114 19.5062 47.5114C19.1147 47.4886 18.7923 47.3517 18.5389 47.1008ZM18.3086 48.4238H20.6807V56.8403H18.3086V48.4238Z" fill="#FDC743"/>
<path d="M24.4115 56.4982C23.7897 56.1789 23.2831 55.6771 22.8685 55.0156C22.477 54.3541 22.2698 53.5558 22.2698 52.6207C22.2698 51.6855 22.477 50.8872 22.8685 50.2257C23.2601 49.5642 23.7897 49.0852 24.4346 48.7431C25.0794 48.4238 25.7703 48.2413 26.4842 48.2413C27.4284 48.2413 28.2575 48.5378 28.9714 49.108V44.5462H31.3435V56.8175H28.9714V55.9508C28.3036 56.6351 27.4284 57 26.346 57C25.6782 57 25.0333 56.8403 24.4115 56.4982ZM28.3726 54.5138C28.7641 54.1489 28.9714 53.6699 28.9714 53.0312V52.2329C28.9714 51.617 28.7641 51.1381 28.3726 50.7731C27.9811 50.4082 27.4745 50.2257 26.8757 50.2257C26.2079 50.2257 25.6782 50.431 25.2867 50.8643C24.8721 51.2977 24.6649 51.8908 24.6649 52.6435C24.6649 53.3962 24.8721 53.9892 25.2867 54.4226C25.7012 54.8559 26.2309 55.0612 26.8987 55.0612C27.4975 55.0384 27.9811 54.8788 28.3726 54.5138Z" fill="#FD671B"/>
<path d="M34.1531 56.3614C33.5083 55.928 33.0937 55.3121 32.8865 54.5366L32.9556 54.3085L34.7749 53.7611C34.9822 54.6963 35.5809 55.1753 36.6173 55.1753C36.9627 55.1753 37.2621 55.1068 37.4924 54.9472C37.7227 54.8103 37.8379 54.605 37.8379 54.3313C37.8379 54.0576 37.6997 53.8523 37.4464 53.6927C37.193 53.533 36.6864 53.3734 35.9494 53.1909C35.0513 52.9856 34.3834 52.6663 33.9228 52.2557C33.4622 51.8451 33.2319 51.2977 33.2319 50.6363C33.2319 50.1801 33.3701 49.7923 33.6234 49.4274C33.8768 49.0624 34.2452 48.7659 34.7058 48.5606C35.1664 48.3553 35.6961 48.2413 36.2949 48.2413C37.193 48.2413 37.93 48.4238 38.5057 48.8115C39.0815 49.1993 39.4499 49.7467 39.6111 50.4538L39.519 50.6363L37.7227 51.0696C37.6536 50.6819 37.4694 50.3854 37.2161 50.1801C36.9627 49.9748 36.6403 49.8608 36.2718 49.8608C35.9955 49.8608 35.7422 49.9292 35.5579 50.0432C35.3737 50.1573 35.2585 50.3169 35.2585 50.5222C35.2585 50.7731 35.4197 50.9784 35.7422 51.1381C36.0646 51.2977 36.6403 51.4802 37.4694 51.7083C38.3445 51.9364 38.9893 52.2557 39.4039 52.6435C39.8184 53.0312 40.0257 53.5558 40.0257 54.2173C40.0257 54.7419 39.8875 55.1981 39.6111 55.6315C39.3348 56.0648 38.9433 56.3842 38.4136 56.6351C37.9069 56.886 37.3082 57 36.6173 57C35.604 57 34.7979 56.7947 34.1531 56.3614Z" fill="#1946BB"/>
<path d="M24.5036 39.5054C23.8818 39.1861 23.3751 38.6843 22.9606 38.0228C22.5691 37.3613 22.3618 36.563 22.3618 35.6279C22.3618 34.6927 22.5691 33.8944 22.9606 33.2329C23.3521 32.5714 23.8818 32.0924 24.5266 31.7503C25.1714 31.431 25.8623 31.2485 26.5763 31.2485C27.5205 31.2485 28.3495 31.545 29.0635 32.1153V31.431H31.4355V39.8475H29.0635V38.9808C28.3956 39.6651 27.5205 40.03 26.4381 40.03C25.7702 40.0072 25.1254 39.8475 24.5036 39.5054ZM28.4647 37.521C28.8562 37.1561 29.0635 36.6771 29.0635 36.0384V35.2401C29.0635 34.6243 28.8562 34.1453 28.4647 33.7803C28.0732 33.4154 27.5665 33.2329 26.9678 33.2329C26.2999 33.2329 25.7702 33.4382 25.3787 33.8716C24.9642 34.3049 24.7569 34.898 24.7569 35.6507C24.7569 36.4034 24.9642 36.9964 25.3787 37.4298C25.7932 37.8632 26.3229 38.0684 26.9908 38.0684C27.5896 38.0684 28.0732 37.886 28.4647 37.521Z" fill="#1946BB"/>
</g>
<defs>
<clipPath id="clip0">
<rect width="45" height="57" fill="white"/>
</clipPath>
</defs>
</svg>
